# xmcd
# Copyright (C) 1995-1998 Ti Kan
#
# Track frame offsets:
#       150
#       18044
#       29322
#       41938
#       60668
#       74630
#       91339
#       102814
#       119746
#       140080
#       155008
#       182430
#       199443
#
# Disc length: 2885 seconds
#
# Revision: 0
# Processed by: cddbd v1.5.2PL0 Copyright (c) Steve Scherf et al.
# Submitted via: CD-Import v1.0
#
DISCID=be0b430d
DTITLE=Calexico - Garden Ruin
DYEAR=2006
DGENRE=
TTITLE0=Cruel
TTITLE1=Yours And Mine
TTITLE2=Bisbee Blue
TTITLE3=Panic Open String
TTITLE4=Letter To Bowie Knife
TTITLE5=Roka
TTITLE6=Lucky Dime
TTITLE7=Smash
TTITLE8=Deep Down
TTITLE9=Nom De Plume
TTITLE10=All Systems Red
TTITLE11=Landing Field
TTITLE12=Cast Your Coat
EXTD=
EXTT0=
EXTT1=
EXTT2=
EXTT3=
EXTT4=
EXTT5=
EXTT6=
EXTT7=
EXTT8=
EXTT9=
EXTT10=
EXTT11=
EXTT12=
PLAYORDER=
